<svg width="22" height="20" viewBox="0 0 22 20" fill="none" xmlns="http://www.w3.org/2000/svg">
<path d="M10.4857 19.9989C5.95109 19.9989 2.71561 18.7927 1.12238 16.5248C-0.250203 14.5464 -0.372803 11.9168 0.803853 8.90106C1.5883 6.85029 3.81869 5.45117 6.34339 5.45117C8.23079 5.45117 10.118 6.22328 11.7113 7.64666C12.5202 7.01943 14.4321 5.74081 16.5155 5.74081C18.4274 5.74081 19.947 6.77813 21.0501 8.80482C22.3001 11.145 22.3247 13.5335 21.0746 15.5841C19.3586 18.3826 15.5105 19.9992 10.4857 19.9992L10.4857 19.9989ZM6.34322 6.56091C4.28433 6.56091 2.47045 7.67078 1.83316 9.28716C1.12242 11.1449 0.583134 13.7987 2.02927 15.8976C3.40186 17.8518 6.31874 18.8892 10.4856 18.8892C15.0937 18.8892 18.6234 17.4659 20.1185 15.005C21.148 13.3162 21.1235 11.2897 20.0695 9.31133C19.1871 7.64661 17.9859 6.82638 16.5398 6.82638C14.2848 6.82638 12.1033 8.75648 12.0788 8.78052C11.8582 8.97355 11.5151 8.97355 11.319 8.75646C9.43174 6.94685 7.56893 6.5608 6.3432 6.5608L6.34322 6.56091Z" fill="#1A162E"/>
<path d="M11.7845 6.68316C11.711 6.68316 11.6619 6.68316 11.5884 6.65909C11.3923 6.58673 11.2453 6.41777 11.2208 6.20066C11.1964 5.98357 10.9756 4.00518 11.9806 2.87127C12.3973 2.3888 12.9856 2.14746 13.6964 2.14746H13.7208C16.2699 2.17153 17.9367 3.7398 18.0103 3.81218C18.1819 3.98114 18.2308 4.24635 18.1083 4.46361C17.9857 4.68071 17.7407 4.80136 17.4955 4.729C17.2258 4.68071 16.9318 4.63258 16.6621 4.63258C14.3336 4.63258 12.1766 6.51438 12.1521 6.51438C12.0541 6.63487 11.9071 6.68317 11.7845 6.68317L11.7845 6.68316ZM13.7208 3.25731C13.3286 3.25731 13.059 3.37797 12.8384 3.59506C12.5197 3.93281 12.3973 4.51188 12.3482 5.01844C13.1327 4.51171 14.3092 3.86045 15.6574 3.61915C15.1181 3.42612 14.4563 3.25733 13.7209 3.25733L13.7208 3.25731Z" fill="#1A162E"/>
<path d="M9.89751 5.45237H9.82399C6.17178 5.04225 4.33348 1.92993 3.99032 1.27866C3.59811 0.940912 3.59811 0.627226 3.67163 0.434177C3.7207 0.313514 3.86774 0 4.38236 0C4.62755 0 5.11774 0.0482987 6.56386 0.554848C10.0692 1.76113 10.4368 4.72855 10.4613 4.84923C10.4857 5.01819 10.4122 5.18698 10.2896 5.30766C10.1916 5.40409 10.0446 5.45239 9.89756 5.45239L9.89751 5.45237ZM5.33843 1.32679C5.90214 2.17127 7.17677 3.66698 9.13771 4.22183C8.81901 3.42568 8.03475 2.24343 6.22083 1.61625C5.85323 1.47152 5.55898 1.37509 5.33843 1.32679V1.32679Z" fill="#1A162E"/>
</svg>
